<svg xmlns="http://www.w3.org/2000/svg" xmlns:xlink="http://www.w3.org/1999/xlink" fill="none" version="1.1" width="16" height="16" viewBox="0 0 16 16"><defs><clipPath id="master_svg0_142_49287/1_68028"><rect x="0" y="0" width="16" height="16" rx="0"/></clipPath></defs><g clip-path="url(#master_svg0_142_49287/1_68028)"><g><path d="M13.8,7L13.2,7C13.0895,7,13,7.0895431,13,7.2L13,11.8C13,11.91046,12.9105,12,12.8,12L3.2,12C3.08954,12,3,11.91046,3,11.8L3,7.2C3,7.0895431,2.910457,7,2.8,7L2.2,7C2.0895431,7,2,7.0895431,2,7.2L2,12.8C2,12.91046,2.0895431,13,2.2,13L13.8,13C13.9105,13,14,12.91046,14,12.8L14,7.2C14,7.0895431,13.9105,7,13.8,7" fill="currentColor" fill-opacity="1"/><path d="M14.15,7.2Q14.15,6.85,13.8,6.85L13.2,6.85Q12.85,6.85,12.85,7.2L12.85,11.8Q12.85,11.85,12.8,11.85L3.2,11.85Q3.15,11.85,3.15,11.8L3.15,7.2Q3.15,7.0550254,3.04749,6.9525126Q2.944975,6.85,2.8,6.85L2.2,6.85Q1.85,6.85,1.85,7.2L1.85,12.8Q1.85,12.94497,1.9525126,13.04749Q2.0550253,13.15,2.2,13.15L13.8,13.15Q14.15,13.15,14.15,12.8L14.15,7.2ZM13.2,7.15L13.8,7.15Q13.85,7.15,13.85,7.2L13.85,12.8Q13.85,12.82071,13.8354,12.83536Q13.8207,12.85,13.8,12.85L2.2,12.85Q2.15,12.85,2.15,12.8L2.15,7.2Q2.15,7.15,2.2,7.15L2.8,7.15Q2.85,7.15,2.85,7.2L2.85,11.8Q2.85,11.94497,2.952513,12.04749Q3.05503,12.15,3.2,12.15L12.8,12.15Q13.15,12.15,13.15,11.8L13.15,7.2Q13.15,7.15,13.2,7.15Z" fill-rule="evenodd" fill="currentColor" fill-opacity="1"/></g><g transform="matrix(1,0,0,-1,0,22)"><path d="M5.59368,17C5.417543,17,5.327412,17.21121,5.449282,17.33838L7.8556,19.84932C7.934340000000001,19.93148,8.06566,19.93148,8.144400000000001,19.84932L10.55072,17.33838C10.67259,17.21121,10.582460000000001,17,10.406320000000001,17L8.7,17C8.58954,17,8.5,16.91046,8.5,16.8L8.5,11.2C8.5,11.0895431,8.41046,11,8.3,11L7.7,11C7.5895399999999995,11,7.5,11.0895431,7.5,11.2L7.5,16.8C7.5,16.91046,7.4104600000000005,17,7.3,17L5.59368,17Z" fill="currentColor" fill-opacity="1"/><path d="M7.35,16.8Q7.35,16.85,7.3,16.85L5.59368,16.85Q5.3625,16.85,5.271765,17.06263Q5.1810292,17.27526,5.340984,17.44217L7.7473,19.953110000000002Q7.85064,20.060940000000002,8,20.060940000000002Q8.14936,20.060940000000002,8.2527,19.953110000000002L10.65902,17.44217Q10.81897,17.27526,10.72824,17.06263Q10.6375,16.85,10.406320000000001,16.85L8.7,16.85Q8.65,16.85,8.65,16.8L8.65,11.2Q8.65,11.0550255,8.54749,10.9525127Q8.44497,10.85,8.3,10.85L7.7,10.85Q7.55503,10.85,7.45251,10.9525126Q7.35,11.0550252,7.35,11.2L7.35,16.8ZM5.59368,17.15L7.3,17.15Q7.44497,17.15,7.54749,17.04749Q7.65,16.944969999999998,7.65,16.8L7.65,11.2Q7.65,11.15,7.7,11.15L8.3,11.15Q8.32071,11.15,8.33536,11.164645Q8.35,11.179289,8.35,11.2L8.35,16.8Q8.35,16.944969999999998,8.45251,17.04749Q8.555019999999999,17.15,8.7,17.15L10.406320000000001,17.15Q10.439350000000001,17.15,10.45231,17.18038Q10.46527,17.21075,10.44242,17.2346L8.0361,19.74554Q8.02134,19.760939999999998,8,19.760939999999998Q7.97866,19.760939999999998,7.963900000000001,19.74554L5.55758,17.23459Q5.53473,17.21075,5.547692,17.18038Q5.5606539999999995,17.15,5.59368,17.15Z" fill-rule="evenodd" fill="currentColor" fill-opacity="1"/></g></g></svg>
