<svg xmlns="http://www.w3.org/2000/svg" xmlns:xlink="http://www.w3.org/1999/xlink" fill="none" version="1.1" width="16" height="16" viewBox="0 0 16 16"><defs><clipPath id="master_svg0_142_49269/1045_023548"><rect x="0" y="0" width="16" height="16" rx="0"/></clipPath></defs><g clip-path="url(#master_svg0_142_49269/1045_023548)"><g><path d="M5.59368,8L7.3,8C7.41046,8,7.5,7.91046,7.5,7.8L7.5,2.2C7.5,2.0895431,7.58954,2,7.7,2L8.3,2C8.41046,2,8.5,2.0895431,8.5,2.2L8.5,7.8C8.5,7.91046,8.58954,8,8.7,8L10.40632,8C10.58246,8,10.67259,8.211210000000001,10.55072,8.33838L8.144400000000001,10.84932C8.065660000000001,10.93148,7.93434,10.93148,7.8556,10.84932L5.44928,8.33838C5.32741,8.211210000000001,5.41754,8,5.59368,8M13.8,7L13.2,7C13.0895,7,13,7.08954,13,7.2L13,11.8C13,11.91046,12.9105,12,12.8,12L3.2,12C3.08954,12,3,11.91046,3,11.8L3,7.2C3,7.08954,2.910457,7,2.8,7L2.2,7C2.0895431,7,2,7.08954,2,7.2L2,12.8C2,12.9105,2.0895431,13,2.2,13L13.8,13C13.9105,13,14,12.9105,14,12.8L14,7.2C14,7.08954,13.9105,7,13.8,7" fill="currentColor" fill-opacity="1"/><path d="M5.34098,8.44217L7.7473,10.95311Q7.85064,11.06094,8,11.06094Q8.14936,11.06094,8.2527,10.95311L10.65902,8.44217Q10.81897,8.27526,10.72824,8.06263Q10.6375,7.85,10.40632,7.85L8.7,7.85Q8.65,7.85,8.65,7.8L8.65,2.2Q8.65,2.0550248,8.54749,1.9525126Q8.444980000000001,1.85,8.3,1.85L7.7,1.85Q7.35,1.85,7.35,2.2L7.35,7.8Q7.35,7.85,7.3,7.85L5.59368,7.85Q5.3625,7.85,5.2717600000000004,8.06263Q5.18103,8.27526,5.34098,8.44217ZM8,10.76094Q7.97866,10.76094,7.9639,10.74554L5.55758,8.2346Q5.53473,8.21075,5.547689999999999,8.18038Q5.56065,8.15,5.59368,8.15L7.3,8.15Q7.44498,8.15,7.54749,8.04749Q7.65,7.94498,7.65,7.8L7.65,2.2Q7.65,2.15,7.7,2.15L8.3,2.15Q8.35,2.15,8.35,2.2L8.35,7.8Q8.35,7.94498,8.45251,8.04749Q8.555019999999999,8.15,8.7,8.15L10.40632,8.15Q10.43935,8.15,10.45231,8.18038Q10.46527,8.21075,10.44242,8.2346L8.036100000000001,10.74554Q8.02134,10.76094,8,10.76094ZM13.8,13.15Q14.15,13.15,14.15,12.8L14.15,7.2Q14.15,6.85,13.8,6.85L13.2,6.85Q13.055,6.85,12.9525,6.95251Q12.85,7.05502,12.85,7.2L12.85,11.8Q12.85,11.85,12.8,11.85L3.2,11.85Q3.15,11.85,3.15,11.8L3.15,7.2Q3.15,6.85,2.8,6.85L2.2,6.85Q2.055025,6.85,1.9525127,6.95251Q1.85,7.05503,1.85,7.2L1.85,12.8Q1.85,12.945,1.9525128,13.0475Q2.0550251,13.15,2.2,13.15L13.8,13.15ZM13.85,7.2L13.85,12.8Q13.85,12.85,13.8,12.85L2.2,12.85Q2.15,12.85,2.15,12.8L2.15,7.2Q2.15,7.15,2.2,7.15L2.8,7.15Q2.85,7.15,2.85,7.2L2.85,11.8Q2.85,12.15,3.2,12.15L12.8,12.15Q13.15,12.15,13.15,11.8L13.15,7.2Q13.15,7.15,13.2,7.15L13.8,7.15Q13.85,7.15,13.85,7.2Z" fill-rule="evenodd" fill="currentColor" fill-opacity="1"/></g></g></svg>
